<svg id="svg" xmlns="http://www.w3.org/2000/svg" xmlns:xlink="http://www.w3.org/1999/xlink" width="400" height="236.36363636363637" viewBox="0, 0, 400,236.36363636363637"><g id="svgg"><path id="path0" d="M161.761 75.334 C 161.225 75.550,161.341 109.423,161.879 109.632 C 162.700 109.951,165.016 109.830,165.253 109.456 C 165.381 109.253,165.480 106.068,165.484 102.009 C 165.490 96.774,165.570 94.763,165.790 94.326 L 166.089 93.735 172.611 93.672 C 178.457 93.616,179.166 93.650,179.460 94.004 C 179.717 94.314,179.812 95.974,179.905 101.797 C 179.995 107.427,180.097 109.271,180.331 109.504 C 180.654 109.826,183.569 109.890,183.878 109.582 C 183.968 109.491,184.072 101.883,184.108 92.675 C 184.182 73.476,184.398 75.177,181.892 75.177 C 179.863 75.177,179.905 75.017,179.905 82.705 C 179.905 90.979,180.774 90.072,172.859 90.067 C 169.388 90.065,166.422 89.983,166.268 89.885 C 165.610 89.467,165.485 88.232,165.485 82.155 C 165.485 78.729,165.420 75.757,165.341 75.551 C 165.200 75.183,162.537 75.021,161.761 75.334 M192.348 75.535 C 191.802 76.080,191.752 108.606,192.296 109.350 C 192.715 109.923,195.413 109.988,195.763 109.434 C 195.879 109.251,195.975 106.309,195.977 102.896 C 195.982 95.289,195.772 95.745,199.280 95.745 C 202.560 95.745,202.514 95.710,204.136 99.369 C 204.895 101.081,205.754 103.014,206.045 103.664 C 206.335 104.314,206.960 105.751,207.433 106.856 C 208.672 109.752,209.689 110.398,212.024 109.773 C 212.864 109.548,212.607 108.174,211.169 105.193 C 209.207 101.129,208.061 98.652,207.648 97.582 C 207.433 97.027,207.167 96.471,207.057 96.348 C 206.422 95.638,206.855 94.621,208.347 93.311 C 213.864 88.468,212.657 78.279,206.277 75.842 C 204.352 75.107,193.026 74.857,192.348 75.535 M218.443 75.643 C 218.141 76.208,218.214 109.310,218.518 109.614 C 218.778 109.874,235.019 109.992,235.408 109.737 C 235.574 109.628,235.773 109.008,235.850 108.360 C 236.087 106.357,236.173 106.383,229.216 106.383 C 223.443 106.383,223.226 106.366,222.791 105.886 C 222.361 105.410,222.335 104.718,222.222 90.510 C 222.089 73.713,222.298 75.187,220.044 75.181 C 218.939 75.178,218.647 75.262,218.443 75.643 M203.837 78.877 C 209.007 80.876,209.203 89.214,204.134 91.533 C 202.534 92.265,197.218 92.352,196.522 91.658 C 195.846 90.983,195.878 79.320,196.558 78.823 C 197.249 78.318,202.491 78.357,203.837 78.877 M246.141 84.218 C 243.679 85.028,240.920 88.314,241.177 90.129 C 241.354 91.371,244.411 91.294,244.933 90.034 C 246.923 85.228,253.282 86.213,253.613 91.378 C 253.768 93.784,253.260 94.326,250.854 94.326 C 246.106 94.326,242.627 96.133,241.155 99.364 C 240.475 100.858,240.454 104.838,241.119 106.303 C 242.919 110.267,248.639 111.433,251.997 108.521 C 252.798 107.827,253.287 107.919,254.086 108.916 C 254.748 109.741,257.254 110.273,257.742 109.693 C 257.797 109.628,257.763 105.106,257.666 99.645 C 257.454 87.571,257.474 87.682,254.968 85.245 C 253.406 83.726,249.142 83.230,246.141 84.218 M272.073 84.138 C 271.471 84.374,270.610 84.848,270.160 85.191 C 269.122 85.982,269.097 85.980,268.188 84.988 C 267.342 84.065,265.786 83.833,264.880 84.496 C 264.135 85.040,264.040 108.269,264.777 109.458 C 265.046 109.892,267.729 109.907,268.159 109.477 C 268.362 109.274,268.472 106.576,268.558 99.693 L 268.676 90.189 269.461 89.212 C 271.211 87.037,274.369 86.541,276.111 88.169 C 277.477 89.444,277.614 90.465,277.706 100.000 C 277.751 104.746,277.839 108.860,277.901 109.142 C 278.144 110.247,280.851 110.125,281.322 108.989 C 281.899 107.594,281.523 89.993,280.877 88.143 C 279.550 84.348,275.846 82.663,272.073 84.138 M293.466 84.235 C 291.771 84.839,290.529 85.773,289.562 87.172 C 286.672 91.354,286.640 102.286,289.506 106.616 C 292.083 110.511,298.630 111.353,302.446 108.281 C 303.960 107.062,305.674 104.158,305.674 102.812 C 305.674 101.855,302.977 101.515,302.128 102.364 C 301.868 102.624,301.655 103.055,301.655 103.321 C 301.655 106.668,295.810 108.019,293.209 105.273 C 290.681 102.603,290.550 91.898,293.008 88.799 C 295.462 85.705,301.655 87.115,301.655 90.768 C 301.655 92.124,302.795 92.802,304.589 92.511 C 305.691 92.332,305.859 91.721,305.310 89.900 C 303.747 84.721,298.777 82.344,293.466 84.235 M316.883 84.040 C 315.129 84.593,312.293 86.748,312.293 87.527 C 312.293 87.631,312.028 88.136,311.705 88.648 C 309.654 91.897,309.776 102.215,311.909 105.836 C 314.770 110.692,321.855 111.694,326.884 107.952 C 329.383 106.093,327.222 103.825,324.621 105.576 C 323.682 106.208,322.965 106.481,321.810 106.644 C 317.407 107.268,314.743 105.143,314.281 100.639 C 314.012 98.008,313.728 98.109,321.402 98.109 C 328.769 98.109,328.398 98.219,328.560 95.980 C 329.190 87.266,323.875 81.832,316.883 84.040 M340.244 84.518 C 338.477 85.502,338.380 85.511,337.783 84.752 C 337.391 84.254,337.120 84.161,336.064 84.161 C 334.053 84.161,334.171 83.464,334.087 95.840 C 333.994 109.695,334.022 109.933,335.773 109.926 C 338.055 109.916,338.056 109.909,338.070 99.645 C 338.084 89.079,338.410 88.211,342.563 87.690 C 344.620 87.432,344.443 87.579,344.607 85.989 C 344.860 83.541,343.078 82.941,340.244 84.518 M321.584 87.450 C 324.123 88.539,325.692 93.511,323.782 94.418 C 321.594 95.456,314.455 94.797,314.396 93.552 C 314.175 88.924,317.815 85.835,321.584 87.450 M253.293 97.618 C 254.005 98.405,253.749 103.528,252.955 104.380 C 249.358 108.242,244.077 106.859,244.504 102.166 C 244.724 99.756,245.961 98.405,248.936 97.329 C 249.926 96.971,252.885 97.167,253.293 97.618 " stroke="none" fill="#212121" fill-rule="evenodd"></path><path id="path1" d="M0.000 118.203 L 0.000 236.407 200.000 236.407 L 400.000 236.407 400.000 118.203 L 400.000 0.000 200.000 0.000 L 0.000 0.000 0.000 118.203 M90.544 53.171 C 90.999 53.302,92.291 53.521,93.416 53.658 C 94.540 53.796,96.881 54.270,98.617 54.712 C 103.339 55.914,108.033 57.650,110.993 59.290 C 111.253 59.434,111.891 59.738,112.411 59.966 C 112.931 60.194,113.889 60.713,114.539 61.119 C 115.189 61.526,115.881 61.929,116.076 62.016 C 122.519 64.881,133.388 76.053,138.769 85.343 C 139.033 85.798,139.345 86.330,139.463 86.525 C 139.924 87.289,142.086 91.896,142.403 92.790 C 142.587 93.310,143.078 94.639,143.495 95.745 C 143.912 96.850,144.391 98.339,144.560 99.054 C 144.729 99.770,145.079 101.152,145.338 102.128 C 147.082 108.694,147.731 124.061,146.373 126.663 C 145.466 128.402,145.346 128.017,144.794 121.631 C 144.440 117.537,144.199 116.263,142.851 111.348 C 137.204 90.759,117.912 74.520,96.454 72.293 C 91.069 71.734,81.463 72.201,78.763 73.154 C 78.269 73.328,77.233 73.596,76.462 73.749 C 75.150 74.010,74.032 74.382,70.213 75.827 C 68.742 76.384,64.205 78.528,63.712 78.900 C 63.582 78.998,62.784 79.494,61.939 80.002 C 57.796 82.492,52.404 87.086,49.254 90.810 C 47.479 92.909,43.972 97.734,43.972 98.077 C 43.972 98.190,43.757 98.554,43.495 98.888 C 42.234 100.491,38.070 109.877,38.058 111.144 C 38.057 111.321,37.841 112.149,37.580 112.984 C 36.106 117.684,35.292 127.432,35.920 132.861 C 36.877 141.141,39.017 147.891,42.853 154.728 C 46.062 160.448,50.437 165.636,56.335 170.714 C 59.154 173.142,65.109 176.646,69.740 178.604 C 70.845 179.071,72.175 179.651,72.695 179.894 C 73.215 180.136,73.907 180.438,74.232 180.566 L 74.823 180.797 74.195 180.963 C 73.849 181.053,72.732 180.967,71.712 180.771 C 70.693 180.574,69.285 180.347,68.584 180.265 C 64.567 179.797,53.434 175.331,49.413 172.575 C 49.086 172.350,47.861 171.545,46.690 170.785 C 40.001 166.441,32.378 158.711,28.487 152.328 C 25.881 148.052,23.779 143.932,22.566 140.723 C 21.504 137.913,20.567 135.048,20.566 134.606 C 20.565 134.361,20.350 133.469,20.088 132.624 C 17.650 124.748,17.595 109.657,19.978 102.364 C 20.169 101.779,20.433 100.715,20.565 100.000 C 20.698 99.285,21.012 98.168,21.263 97.518 C 21.515 96.868,22.105 95.288,22.575 94.007 C 23.045 92.727,23.524 91.503,23.639 91.289 C 23.754 91.074,24.285 89.994,24.818 88.889 C 26.145 86.140,27.350 83.953,28.033 83.054 C 28.348 82.640,28.605 82.229,28.605 82.140 C 28.605 80.844,37.408 70.943,41.608 67.514 C 45.298 64.502,51.821 60.273,53.674 59.692 C 53.994 59.591,54.509 59.311,54.819 59.069 C 55.129 58.827,55.502 58.629,55.648 58.629 C 55.794 58.629,56.392 58.375,56.976 58.064 C 57.560 57.753,58.570 57.333,59.220 57.130 C 59.870 56.927,61.147 56.479,62.057 56.135 C 64.424 55.239,69.687 53.945,72.200 53.641 C 73.383 53.498,74.445 53.322,74.561 53.251 C 75.403 52.735,88.792 52.668,90.544 53.171 M165.597 75.402 C 165.893 75.976,165.957 77.211,165.957 82.365 C 165.957 86.616,166.046 88.824,166.232 89.232 L 166.506 89.835 172.725 89.835 C 178.411 89.835,178.962 89.799,179.165 89.420 C 179.287 89.192,179.424 86.011,179.469 82.352 C 179.566 74.484,179.496 74.704,181.899 74.704 C 182.826 74.704,183.535 74.837,183.872 75.073 L 184.397 75.441 184.397 92.557 L 184.397 109.674 183.395 109.944 C 182.844 110.093,181.928 110.162,181.361 110.098 C 179.502 109.888,179.561 110.148,179.474 101.752 L 179.397 94.301 178.808 94.077 C 177.642 93.634,167.023 93.797,166.460 94.267 C 165.979 94.669,165.963 94.897,165.902 102.088 C 165.828 110.776,165.991 110.281,163.281 110.098 C 160.910 109.939,161.119 111.586,161.047 92.546 C 160.973 72.894,160.716 74.704,163.587 74.704 C 165.174 74.704,165.250 74.731,165.597 75.402 M204.846 75.034 C 212.828 77.224,215.076 88.229,208.622 93.517 C 206.754 95.048,206.769 95.110,211.706 105.556 C 212.197 106.596,212.732 107.946,212.894 108.555 L 213.188 109.664 212.469 109.915 C 211.546 110.237,209.965 110.236,209.038 109.913 C 208.316 109.661,208.208 109.496,207.043 106.856 C 206.785 106.271,206.380 105.366,206.144 104.846 C 205.907 104.326,205.325 102.996,204.850 101.891 C 202.264 95.870,202.366 95.979,199.365 95.985 C 196.342 95.990,196.591 95.396,196.454 102.935 C 196.323 110.144,196.391 109.875,194.636 110.083 C 191.241 110.485,191.449 111.720,191.537 91.646 L 191.608 75.608 192.166 75.156 C 192.887 74.572,202.814 74.477,204.846 75.034 M221.933 75.073 L 222.459 75.441 222.459 90.052 C 222.459 104.477,222.465 104.672,222.949 105.287 L 223.439 105.910 229.222 105.910 C 236.187 105.910,236.170 105.905,236.170 108.052 C 236.170 110.242,236.493 110.165,227.288 110.165 C 218.025 110.165,218.058 110.172,217.850 108.434 C 217.441 105.011,217.837 75.712,218.299 75.202 C 218.865 74.577,221.111 74.497,221.933 75.073 M196.927 79.196 C 196.308 79.815,196.188 90.327,196.791 91.149 C 197.242 91.764,202.673 91.797,204.021 91.193 C 208.859 89.027,208.349 80.596,203.289 79.094 C 201.361 78.521,197.540 78.583,196.927 79.196 M97.201 83.789 C 100.281 84.302,105.170 85.590,105.792 86.051 C 105.922 86.148,106.454 86.364,106.974 86.531 C 107.494 86.698,109.033 87.416,110.394 88.125 C 112.601 89.277,113.967 90.148,117.325 92.544 C 118.882 93.655,123.683 98.580,125.172 100.594 C 127.270 103.431,128.853 106.097,130.013 108.747 C 130.440 109.722,130.883 110.733,130.997 110.993 C 131.626 112.420,132.708 115.952,132.989 117.494 C 133.167 118.469,133.486 120.065,133.699 121.040 C 134.260 123.615,133.974 127.733,133.307 126.680 C 133.196 126.504,133.103 126.151,133.101 125.897 C 133.092 124.808,128.483 115.491,127.657 114.894 C 127.567 114.829,127.195 114.299,126.831 113.717 C 126.466 113.135,126.051 112.531,125.909 112.374 C 125.766 112.218,124.852 111.200,123.877 110.112 C 122.286 108.337,118.875 105.260,117.405 104.274 C 117.099 104.069,116.382 103.588,115.812 103.206 C 112.899 101.253,108.152 99.030,105.437 98.347 C 104.852 98.200,103.948 97.929,103.428 97.745 C 99.427 96.325,88.826 96.220,83.924 97.551 C 77.913 99.183,74.836 100.501,70.567 103.270 C 63.687 107.732,56.454 116.686,54.492 123.168 C 54.315 123.753,53.959 124.817,53.702 125.532 C 52.015 130.214,51.314 136.021,51.763 141.585 C 52.072 145.409,52.045 147.191,51.678 147.124 C 51.363 147.065,49.958 144.387,49.760 143.466 C 49.665 143.029,49.427 142.356,49.230 141.970 C 48.123 139.806,47.083 134.014,46.894 128.960 C 46.599 121.081,47.963 114.590,51.365 107.683 C 59.839 90.481,78.620 80.691,97.201 83.789 M252.945 83.745 C 257.174 85.225,257.920 87.197,257.920 96.903 C 257.920 100.707,258.036 105.099,258.179 106.662 C 258.492 110.088,258.516 110.047,256.112 110.047 C 254.465 110.047,254.290 109.999,253.819 109.417 C 253.136 108.572,252.745 108.528,251.814 109.190 C 247.569 112.213,241.251 109.834,240.412 104.898 C 239.270 98.170,243.439 93.865,251.106 93.855 C 252.949 93.853,253.191 93.564,253.191 91.372 C 253.191 88.266,251.053 86.701,248.033 87.598 C 246.833 87.954,245.390 89.244,245.390 89.961 C 245.390 91.064,242.998 91.680,241.268 91.022 C 239.447 90.330,242.561 85.002,245.272 84.171 C 245.662 84.051,246.407 83.792,246.927 83.594 C 248.385 83.042,251.132 83.110,252.945 83.745 M277.578 83.799 C 281.373 85.537,282.033 88.027,282.033 100.617 C 282.033 110.437,282.001 110.533,278.866 110.063 C 277.285 109.826,277.306 109.944,277.298 101.138 C 277.290 92.378,277.107 90.151,276.301 88.964 C 274.974 87.009,272.028 87.083,270.125 89.117 C 268.728 90.611,268.804 89.991,268.736 100.402 C 268.667 110.749,268.833 110.047,266.455 110.047 C 263.845 110.047,264.066 111.246,264.070 97.075 C 264.074 84.381,264.071 84.416,264.937 83.960 C 265.923 83.441,268.547 83.891,268.562 84.581 C 268.577 85.304,269.014 85.391,269.887 84.845 C 272.710 83.078,275.249 82.733,277.578 83.799 M300.400 83.815 C 303.470 84.961,305.957 88.347,305.957 91.381 C 305.957 93.717,301.912 93.512,301.422 91.151 C 300.350 85.990,293.500 86.113,292.162 91.317 C 291.733 92.986,291.733 101.119,292.162 102.600 C 292.934 105.265,294.410 106.383,297.154 106.383 L 298.820 106.383 299.979 105.260 C 300.771 104.493,301.222 103.820,301.404 103.136 C 301.946 101.104,306.023 100.963,305.964 102.979 C 305.927 104.253,304.581 106.797,303.286 108.038 C 299.201 111.955,291.002 110.873,288.733 106.118 C 287.362 103.244,287.364 103.257,287.274 97.636 C 287.193 92.557,287.366 90.475,287.959 89.373 C 288.068 89.172,288.336 88.604,288.554 88.111 C 290.323 84.123,295.852 82.119,300.400 83.815 M323.522 83.920 C 326.394 85.225,327.899 87.386,328.631 91.253 C 329.323 94.902,329.186 97.556,328.274 98.164 C 328.131 98.260,325.282 98.340,321.942 98.342 C 314.597 98.346,314.657 98.331,314.657 100.199 C 314.657 105.524,319.747 108.242,324.252 105.324 C 326.264 104.021,326.852 103.988,327.719 105.129 C 330.655 109.000,319.622 112.365,314.579 109.137 C 310.438 106.486,308.687 98.757,310.484 91.061 C 311.931 84.860,318.128 81.466,323.522 83.920 M344.241 83.668 C 344.723 84.058,344.798 84.324,344.792 85.618 C 344.781 87.840,344.705 87.943,343.074 87.943 C 341.927 87.943,341.502 88.067,340.607 88.659 C 338.361 90.148,338.298 90.482,338.298 100.960 C 338.298 110.677,338.455 110.047,336.027 110.047 C 333.758 110.047,333.933 111.100,333.859 97.048 L 333.794 84.663 334.317 84.176 C 335.130 83.419,337.090 83.490,337.905 84.305 L 338.522 84.923 340.124 84.079 C 341.990 83.096,343.366 82.959,344.241 83.668 M318.199 87.594 C 316.734 88.049,315.768 89.150,315.136 91.087 C 314.175 94.030,314.564 94.326,319.385 94.326 C 324.131 94.326,324.509 94.092,323.967 91.489 C 323.296 88.269,321.005 86.722,318.199 87.594 M249.764 97.621 C 247.404 98.025,245.585 99.348,245.144 100.978 C 244.050 105.025,246.928 107.523,250.566 105.686 C 252.943 104.487,253.191 104.014,253.191 100.699 C 253.191 97.216,253.021 97.062,249.764 97.621 M273.009 126.395 C 274.466 126.785,274.015 128.665,272.402 128.923 C 269.552 129.378,269.077 133.355,271.766 134.247 C 273.553 134.840,273.362 136.643,271.513 136.643 C 269.981 136.643,269.976 136.669,269.976 144.529 C 269.976 152.386,270.003 152.246,268.524 152.246 C 266.927 152.246,266.903 152.127,266.903 144.289 L 266.903 137.383 265.898 136.710 C 264.475 135.757,264.445 135.076,265.787 134.130 C 266.804 133.413,266.824 133.373,267.092 131.476 C 267.485 128.698,268.905 126.677,270.654 126.408 C 271.710 126.245,272.435 126.241,273.009 126.395 M204.860 126.813 C 205.289 127.126,205.327 127.560,205.437 133.491 C 205.547 139.387,205.649 140.426,206.116 140.426 C 206.262 140.426,207.299 139.110,209.752 135.817 C 209.849 135.686,210.122 135.326,210.358 135.017 C 211.274 133.815,214.397 134.216,213.514 135.422 C 213.355 135.638,213.042 136.115,212.818 136.482 C 212.594 136.848,211.693 138.049,210.816 139.151 C 208.852 141.616,208.846 141.760,210.579 144.604 C 211.327 145.830,212.140 147.174,212.386 147.590 C 212.633 148.005,213.253 149.004,213.765 149.810 C 215.004 151.759,214.919 152.108,213.183 152.198 C 211.638 152.279,211.680 152.320,209.492 148.582 C 207.174 144.620,206.861 144.353,205.927 145.540 C 205.495 146.090,205.437 146.489,205.437 148.928 C 205.437 151.581,205.415 151.705,204.887 151.988 C 204.014 152.455,202.782 152.229,202.426 151.537 C 202.077 150.855,202.093 127.853,202.444 127.141 C 202.775 126.468,204.136 126.284,204.860 126.813 M163.177 127.908 C 163.663 128.043,164.166 128.350,164.295 128.590 C 164.562 129.091,166.792 135.848,168.917 142.597 C 170.058 146.223,170.794 146.929,171.395 144.973 C 171.544 144.487,171.855 143.558,172.084 142.908 C 172.314 142.258,172.783 140.822,173.126 139.716 C 173.468 138.611,174.269 136.111,174.903 134.161 C 175.538 132.210,176.185 130.157,176.340 129.599 C 176.805 127.923,178.297 127.278,180.031 128.002 L 180.851 128.345 180.851 140.152 C 180.851 153.152,180.960 152.246,179.398 152.246 C 177.716 152.246,177.778 152.529,177.774 144.850 C 177.772 141.051,177.677 137.796,177.563 137.615 C 177.216 137.068,176.421 138.031,176.124 139.357 C 175.980 139.999,175.772 140.635,175.661 140.770 C 175.550 140.906,175.339 141.495,175.192 142.080 C 175.044 142.665,174.775 143.517,174.593 143.972 C 174.411 144.427,173.810 146.220,173.256 147.957 C 172.098 151.590,171.692 152.247,170.609 152.242 C 169.212 152.236,169.405 152.625,166.560 144.090 C 165.303 140.319,164.215 137.074,164.142 136.879 C 163.641 135.541,163.378 138.244,163.368 144.829 C 163.356 152.547,163.406 152.327,161.666 152.201 C 159.997 152.080,160.039 152.412,160.106 139.873 L 160.165 128.800 160.829 128.230 C 161.567 127.595,161.892 127.551,163.177 127.908 M244.934 128.768 C 245.056 129.089,245.154 133.667,245.154 139.096 C 245.154 146.533,245.224 148.937,245.449 149.231 C 245.698 149.556,246.390 149.628,249.842 149.690 C 253.578 149.757,253.969 149.804,254.275 150.222 C 254.684 150.783,254.708 151.580,254.326 151.962 C 253.923 152.366,242.531 152.366,242.128 151.962 C 241.748 151.583,241.718 129.283,242.096 128.576 C 242.659 127.525,244.509 127.650,244.934 128.768 M260.418 127.996 C 261.466 129.045,260.956 130.930,259.615 130.962 C 258.991 130.977,257.937 129.655,258.094 129.055 C 258.392 127.912,259.726 127.305,260.418 127.996 M312.655 128.002 C 313.306 128.274,313.475 128.477,313.475 128.988 C 313.475 130.377,313.098 130.496,308.710 130.496 C 303.553 130.496,303.783 130.313,303.783 134.438 C 303.783 138.480,303.581 138.298,308.061 138.298 C 311.406 138.298,311.573 138.321,311.925 138.823 C 313.128 140.541,312.073 141.135,307.815 141.135 C 303.542 141.135,303.717 140.933,303.824 145.739 C 303.917 149.932,303.587 149.637,308.186 149.642 C 313.350 149.647,314.622 150.119,313.615 151.655 L 313.228 152.246 307.218 152.246 C 301.276 152.246,301.205 152.240,300.841 151.720 C 300.521 151.263,300.473 149.783,300.476 140.314 C 300.480 128.684,300.493 128.554,301.660 127.963 C 302.550 127.513,311.560 127.545,312.655 128.002 M352.169 128.191 C 353.557 129.733,351.699 131.863,350.240 130.404 C 349.490 129.653,349.485 128.980,350.226 128.240 C 350.947 127.518,351.550 127.503,352.169 128.191 M194.106 134.186 C 197.078 135.067,197.636 136.491,197.636 143.190 C 197.635 145.765,197.759 148.760,197.911 149.844 C 198.231 152.133,198.167 152.236,196.424 152.242 C 195.736 152.245,195.220 152.114,195.035 151.891 C 194.641 151.415,194.193 151.444,192.999 152.022 C 189.305 153.811,185.575 151.419,185.581 147.266 C 185.586 143.902,187.758 141.859,191.802 141.415 C 194.547 141.114,195.050 140.586,194.520 138.564 C 193.911 136.240,190.261 135.933,189.102 138.108 C 187.895 140.373,185.411 139.240,186.526 136.933 C 187.731 134.439,190.982 133.261,194.106 134.186 M226.055 134.297 C 228.597 135.294,229.774 137.395,229.965 141.275 C 230.110 144.228,230.459 144.028,224.941 144.155 C 220.279 144.263,220.095 144.318,220.095 145.624 C 220.095 149.187,223.711 151.133,226.880 149.276 C 229.225 147.901,230.356 149.898,228.141 151.503 C 224.899 153.852,219.661 152.669,217.823 149.173 L 217.139 147.872 217.139 143.381 L 217.139 138.889 217.891 137.451 C 219.528 134.320,222.847 133.038,226.055 134.297 M284.532 134.191 C 287.254 135.091,288.494 137.283,288.518 141.240 C 288.538 144.380,288.933 144.151,283.421 144.184 C 278.620 144.213,278.360 144.411,279.169 147.418 C 279.793 149.733,283.508 150.819,285.579 149.291 C 287.592 147.806,289.118 149.401,287.363 151.156 C 284.551 153.967,278.597 152.867,276.596 149.166 L 275.768 147.636 275.768 143.499 L 275.768 139.362 276.510 137.825 C 278.128 134.471,281.187 133.085,284.532 134.191 M325.834 134.280 C 327.275 134.819,328.142 135.632,328.735 136.998 C 329.248 138.180,329.689 151.760,329.224 152.065 C 328.787 152.352,327.345 152.252,326.714 151.891 C 325.958 151.459,325.313 151.450,324.841 151.865 C 323.004 153.479,318.919 152.431,317.687 150.029 C 315.647 146.050,318.360 141.818,323.190 141.445 C 325.276 141.284,325.950 140.929,326.017 139.953 C 326.255 136.459,323.303 135.326,320.783 137.943 C 319.073 139.719,317.730 139.715,317.730 137.935 C 317.730 137.003,319.118 135.160,320.171 134.692 C 320.584 134.509,321.188 134.242,321.513 134.099 C 322.460 133.681,324.458 133.765,325.834 134.280 M341.565 134.192 C 344.633 135.183,346.560 139.243,343.962 139.243 C 342.973 139.243,342.573 139.023,342.178 138.259 C 341.364 136.685,338.939 136.112,337.751 137.214 C 336.017 138.821,336.917 140.383,340.539 142.054 C 345.324 144.262,346.566 146.504,344.901 149.931 C 342.768 154.320,333.570 152.872,333.570 148.147 C 333.570 146.734,335.709 146.614,336.472 147.984 C 337.545 149.912,340.142 150.612,341.694 149.392 C 342.543 148.724,342.594 146.903,341.785 146.179 C 341.052 145.524,339.048 144.346,338.123 144.026 C 330.741 141.475,334.130 131.790,341.565 134.192 M366.477 134.492 C 368.521 135.479,369.336 137.060,369.789 140.921 C 370.174 144.210,370.386 144.068,364.945 144.171 C 360.145 144.263,360.047 144.295,360.047 145.781 C 360.047 149.384,364.624 151.486,367.092 149.017 C 367.888 148.222,369.356 148.898,369.228 150.002 C 368.845 153.321,361.008 153.490,358.337 150.236 C 356.760 148.315,356.247 141.834,357.406 138.478 C 358.778 134.507,362.824 132.729,366.477 134.492 M380.870 134.446 C 381.412 135.872,380.952 136.821,379.631 137.003 C 376.755 137.398,376.362 138.468,376.361 145.903 C 376.359 152.296,376.368 152.246,375.255 152.246 C 373.422 152.246,373.522 152.757,373.522 143.450 C 373.522 133.621,373.538 133.570,376.282 134.562 C 376.963 134.809,377.199 134.779,378.072 134.341 C 379.544 133.601,380.563 133.640,380.870 134.446 M260.621 134.650 C 261.108 135.137,261.190 151.481,260.709 151.962 C 260.372 152.299,258.896 152.332,258.392 152.015 C 257.747 151.607,257.736 135.408,258.381 134.763 C 258.957 134.187,260.101 134.130,260.621 134.650 M352.261 134.524 C 352.700 134.759,352.719 135.107,352.719 143.262 C 352.719 152.673,352.792 152.246,351.182 152.246 C 349.574 152.246,349.645 152.658,349.645 143.389 C 349.645 136.098,349.693 134.974,350.017 134.650 C 350.441 134.227,351.585 134.162,352.261 134.524 M221.725 137.182 C 221.159 137.563,220.806 138.068,220.527 138.896 C 219.718 141.303,220.058 141.608,223.549 141.608 C 226.328 141.608,226.714 141.433,226.714 140.173 C 226.714 137.304,223.983 135.667,221.725 137.182 M280.687 137.105 C 279.210 138.006,278.358 140.796,279.390 141.348 C 280.841 142.125,285.579 141.513,285.579 140.549 C 285.579 137.498,283.009 135.689,280.687 137.105 M361.747 137.122 C 360.299 138.005,359.501 140.826,360.543 141.383 C 361.219 141.745,366.070 141.591,366.466 141.194 C 366.875 140.784,366.795 139.467,366.296 138.416 C 365.499 136.735,363.373 136.131,361.747 137.122 M191.017 143.978 C 188.393 144.593,187.853 149.125,190.331 149.737 C 193.038 150.407,195.126 148.310,194.726 145.324 C 194.521 143.801,193.441 143.409,191.017 143.978 M322.612 143.965 C 318.982 144.667,319.531 150.305,323.181 149.815 C 325.211 149.543,326.122 148.389,326.122 146.088 C 326.123 143.742,325.553 143.397,322.612 143.965 " stroke="none" fill="#fbfbfb" fill-rule="evenodd"></path><path id="path2" d="M76.688 52.937 C 75.634 53.039,74.677 53.180,74.561 53.251 C 74.445 53.322,73.383 53.498,72.200 53.641 C 69.687 53.945,64.424 55.239,62.057 56.135 C 61.147 56.479,59.870 56.927,59.220 57.130 C 58.570 57.333,57.560 57.753,56.976 58.064 C 56.392 58.375,55.794 58.629,55.648 58.629 C 55.502 58.629,55.129 58.827,54.819 59.069 C 54.509 59.311,53.994 59.591,53.674 59.692 C 51.821 60.273,45.298 64.502,41.608 67.514 C 37.408 70.943,28.605 80.844,28.605 82.140 C 28.605 82.229,28.348 82.640,28.033 83.054 C 27.350 83.953,26.145 86.140,24.818 88.889 C 24.285 89.994,23.754 91.074,23.639 91.289 C 23.524 91.503,23.045 92.727,22.575 94.007 C 22.105 95.288,21.515 96.868,21.263 97.518 C 21.012 98.168,20.698 99.285,20.565 100.000 C 20.433 100.715,20.169 101.779,19.978 102.364 C 17.595 109.657,17.650 124.748,20.088 132.624 C 20.350 133.469,20.565 134.361,20.566 134.606 C 20.567 135.048,21.504 137.913,22.566 140.723 C 23.779 143.932,25.881 148.052,28.487 152.328 C 32.378 158.711,40.001 166.441,46.690 170.785 C 47.861 171.545,49.086 172.350,49.413 172.575 C 51.779 174.196,57.906 177.051,61.820 178.355 C 66.047 179.764,67.288 180.114,68.584 180.265 C 69.285 180.347,70.693 180.574,71.712 180.771 C 72.732 180.967,73.849 181.053,74.195 180.963 L 74.823 180.797 74.232 180.566 C 73.907 180.438,73.215 180.136,72.695 179.894 C 72.175 179.651,70.845 179.071,69.740 178.604 C 65.109 176.646,59.154 173.142,56.335 170.714 C 48.003 163.540,42.481 155.831,39.023 146.545 C 35.281 136.497,34.669 122.269,37.580 112.984 C 37.841 112.149,38.057 111.321,38.058 111.144 C 38.062 110.800,39.498 106.814,40.115 105.437 C 41.083 103.276,43.068 99.430,43.495 98.888 C 43.757 98.554,43.972 98.190,43.972 98.077 C 43.972 97.734,47.479 92.909,49.254 90.810 C 52.404 87.086,57.796 82.492,61.939 80.002 C 62.784 79.494,63.582 78.998,63.712 78.900 C 65.292 77.709,73.773 74.283,76.462 73.749 C 77.233 73.596,78.269 73.328,78.763 73.154 C 80.160 72.661,86.525 72.019,90.189 72.002 C 98.937 71.960,106.836 73.774,114.654 77.622 C 127.910 84.145,139.042 97.460,142.851 111.348 C 144.199 116.263,144.440 117.537,144.794 121.631 C 145.346 128.017,145.466 128.402,146.373 126.663 C 147.731 124.061,147.082 108.694,145.338 102.128 C 145.079 101.152,144.729 99.770,144.560 99.054 C 144.391 98.339,143.912 96.850,143.495 95.745 C 143.078 94.639,142.587 93.310,142.403 92.790 C 142.086 91.896,139.924 87.289,139.463 86.525 C 139.345 86.330,139.033 85.798,138.769 85.343 C 133.388 76.053,122.519 64.881,116.076 62.016 C 115.881 61.929,115.189 61.526,114.539 61.119 C 113.889 60.713,112.931 60.194,112.411 59.966 C 111.891 59.738,111.253 59.434,110.993 59.290 C 108.033 57.650,103.339 55.914,98.617 54.712 C 96.881 54.270,94.540 53.796,93.416 53.658 C 92.291 53.521,90.999 53.302,90.544 53.171 C 89.486 52.867,79.210 52.694,76.688 52.937 M161.461 75.182 C 160.884 75.759,160.815 109.137,161.390 109.711 C 161.543 109.864,162.394 110.039,163.281 110.098 C 165.991 110.281,165.828 110.776,165.902 102.088 C 165.963 94.897,165.979 94.669,166.460 94.267 C 167.023 93.797,177.642 93.634,178.808 94.077 L 179.397 94.301 179.474 101.752 C 179.561 110.148,179.502 109.888,181.361 110.098 C 181.928 110.162,182.844 110.093,183.395 109.944 L 184.397 109.674 184.397 92.557 L 184.397 75.441 183.872 75.073 C 183.535 74.837,182.826 74.704,181.899 74.704 C 179.496 74.704,179.566 74.484,179.469 82.352 C 179.424 86.011,179.287 89.192,179.165 89.420 C 178.962 89.799,178.411 89.835,172.725 89.835 L 166.506 89.835 166.232 89.232 C 166.046 88.824,165.957 86.616,165.957 82.365 C 165.957 74.577,165.997 74.704,163.587 74.704 C 162.248 74.704,161.849 74.794,161.461 75.182 M192.166 75.156 L 191.608 75.608 191.537 91.646 C 191.449 111.720,191.241 110.485,194.636 110.083 C 196.391 109.875,196.323 110.144,196.454 102.935 C 196.591 95.396,196.342 95.990,199.365 95.985 C 202.366 95.979,202.264 95.870,204.850 101.891 C 205.325 102.996,205.907 104.326,206.144 104.846 C 206.380 105.366,206.785 106.271,207.043 106.856 C 208.208 109.496,208.316 109.661,209.038 109.913 C 209.965 110.236,211.546 110.237,212.469 109.915 L 213.188 109.664 212.894 108.555 C 212.732 107.946,212.197 106.596,211.706 105.556 C 206.769 95.110,206.754 95.048,208.622 93.517 C 215.076 88.229,212.828 77.224,204.846 75.034 C 202.814 74.477,192.887 74.572,192.166 75.156 M218.299 75.202 C 217.837 75.712,217.441 105.011,217.850 108.434 C 218.058 110.172,218.025 110.165,227.288 110.165 C 236.493 110.165,236.170 110.242,236.170 108.052 C 236.170 105.905,236.187 105.910,229.222 105.910 L 223.439 105.910 222.949 105.287 C 222.465 104.672,222.459 104.477,222.459 90.052 L 222.459 75.441 221.933 75.073 C 221.111 74.497,218.865 74.577,218.299 75.202 M165.341 75.551 C 165.420 75.757,165.485 78.729,165.485 82.155 C 165.485 88.232,165.610 89.467,166.268 89.885 C 166.422 89.983,169.388 90.065,172.859 90.067 C 180.774 90.072,179.905 90.979,179.905 82.705 C 179.905 75.017,179.863 75.177,181.892 75.177 C 184.398 75.177,184.182 73.476,184.108 92.675 C 184.072 101.883,183.968 109.491,183.878 109.582 C 183.569 109.890,180.654 109.826,180.331 109.504 C 180.097 109.271,179.995 107.427,179.905 101.797 C 179.812 95.974,179.717 94.314,179.460 94.004 C 179.166 93.650,178.457 93.616,172.611 93.672 L 166.089 93.735 165.790 94.326 C 165.570 94.763,165.490 96.774,165.484 102.009 C 165.480 106.068,165.381 109.253,165.253 109.456 C 165.016 109.830,162.700 109.951,161.879 109.632 C 161.341 109.423,161.225 75.550,161.761 75.334 C 162.537 75.021,165.200 75.183,165.341 75.551 M206.277 75.842 C 212.657 78.279,213.864 88.468,208.347 93.311 C 206.855 94.621,206.422 95.638,207.057 96.348 C 207.167 96.471,207.433 97.027,207.648 97.582 C 208.061 98.652,209.207 101.129,211.169 105.193 C 212.607 108.174,212.864 109.548,212.024 109.773 C 209.689 110.398,208.672 109.752,207.433 106.856 C 206.960 105.751,206.335 104.314,206.045 103.664 C 205.754 103.014,204.895 101.081,204.136 99.369 C 202.514 95.710,202.560 95.745,199.280 95.745 C 195.772 95.745,195.982 95.289,195.977 102.896 C 195.975 106.309,195.879 109.251,195.763 109.434 C 195.413 109.988,192.715 109.923,192.296 109.350 C 191.752 108.606,191.802 76.080,192.348 75.535 C 193.026 74.857,204.352 75.107,206.277 75.842 M221.749 75.409 C 222.056 75.603,222.120 77.630,222.222 90.510 C 222.335 104.718,222.361 105.410,222.791 105.886 C 223.226 106.366,223.443 106.383,229.216 106.383 C 236.173 106.383,236.087 106.357,235.850 108.360 C 235.773 109.008,235.574 109.628,235.408 109.737 C 235.019 109.992,218.778 109.874,218.518 109.614 C 218.214 109.310,218.141 76.208,218.443 75.643 C 218.718 75.129,221.046 74.964,221.749 75.409 M196.558 78.823 C 195.878 79.320,195.846 90.983,196.522 91.658 C 197.218 92.352,202.534 92.265,204.134 91.533 C 209.203 89.214,209.007 80.876,203.837 78.877 C 202.491 78.357,197.249 78.318,196.558 78.823 M203.289 79.094 C 208.349 80.596,208.859 89.027,204.021 91.193 C 202.673 91.797,197.242 91.764,196.791 91.149 C 196.188 90.327,196.308 79.815,196.927 79.196 C 197.540 78.583,201.361 78.521,203.289 79.094 M83.343 83.821 C 64.199 87.097,49.545 102.450,47.141 121.749 C 46.336 128.208,47.386 138.364,49.230 141.970 C 49.427 142.356,49.665 143.029,49.760 143.466 C 49.958 144.387,51.363 147.065,51.678 147.124 C 52.045 147.191,52.072 145.409,51.763 141.585 C 51.314 136.021,52.015 130.214,53.702 125.532 C 53.959 124.817,54.315 123.753,54.492 123.168 C 56.454 116.686,63.687 107.732,70.567 103.270 C 74.836 100.501,77.913 99.183,83.924 97.551 C 88.826 96.220,99.427 96.325,103.428 97.745 C 103.948 97.929,104.852 98.200,105.437 98.347 C 108.152 99.030,112.899 101.253,115.812 103.206 C 116.382 103.588,117.099 104.069,117.405 104.274 C 118.875 105.260,122.286 108.337,123.877 110.112 C 124.852 111.200,125.766 112.218,125.909 112.374 C 126.051 112.531,126.466 113.135,126.831 113.717 C 127.195 114.299,127.567 114.829,127.657 114.894 C 128.483 115.491,133.092 124.808,133.101 125.897 C 133.103 126.151,133.196 126.504,133.307 126.680 C 133.974 127.733,134.260 123.615,133.699 121.040 C 133.486 120.065,133.167 118.469,132.989 117.494 C 132.708 115.952,131.626 112.420,130.997 110.993 C 130.883 110.733,130.440 109.722,130.013 108.747 C 128.853 106.097,127.270 103.431,125.172 100.594 C 123.683 98.580,118.882 93.655,117.325 92.544 C 113.967 90.148,112.601 89.277,110.394 88.125 C 109.033 87.416,107.494 86.698,106.974 86.531 C 106.454 86.364,105.922 86.148,105.792 86.051 C 102.856 83.872,90.320 82.627,83.343 83.821 M246.927 83.594 C 246.407 83.792,245.662 84.051,245.272 84.171 C 242.561 85.002,239.447 90.330,241.268 91.022 C 242.998 91.680,245.390 91.064,245.390 89.961 C 245.390 88.098,249.861 86.622,251.659 87.892 C 252.758 88.668,253.191 89.652,253.191 91.372 C 253.191 93.564,252.949 93.853,251.106 93.855 C 243.439 93.865,239.270 98.170,240.412 104.898 C 241.251 109.834,247.569 112.213,251.814 109.190 C 252.745 108.528,253.136 108.572,253.819 109.417 C 254.290 109.999,254.465 110.047,256.112 110.047 C 258.516 110.047,258.492 110.088,258.179 106.662 C 258.036 105.099,257.920 100.707,257.920 96.903 C 257.920 88.515,257.718 87.490,255.666 85.461 C 253.613 83.430,249.613 82.576,246.927 83.594 M271.980 83.757 C 271.326 84.044,270.384 84.534,269.887 84.845 C 269.014 85.391,268.577 85.304,268.562 84.581 C 268.547 83.891,265.923 83.441,264.937 83.960 C 264.071 84.416,264.074 84.381,264.070 97.075 C 264.066 111.246,263.845 110.047,266.455 110.047 C 268.833 110.047,268.667 110.749,268.736 100.402 C 268.804 89.991,268.728 90.611,270.125 89.117 C 272.028 87.083,274.974 87.009,276.301 88.964 C 277.107 90.151,277.290 92.378,277.298 101.138 C 277.306 109.944,277.285 109.826,278.866 110.063 C 282.001 110.533,282.033 110.437,282.033 100.617 C 282.033 89.879,281.629 87.329,279.584 85.158 C 277.815 83.281,274.465 82.664,271.980 83.757 M294.681 83.384 C 294.144 83.514,292.926 84.013,291.762 84.582 C 290.772 85.066,289.079 86.929,288.554 88.111 C 288.336 88.604,288.068 89.172,287.959 89.373 C 287.366 90.475,287.193 92.557,287.274 97.636 C 287.364 103.257,287.362 103.244,288.733 106.118 C 291.002 110.873,299.201 111.955,303.286 108.038 C 304.581 106.797,305.927 104.253,305.964 102.979 C 306.023 100.963,301.946 101.104,301.404 103.136 C 301.222 103.820,300.771 104.493,299.979 105.260 L 298.820 106.383 297.154 106.383 C 294.410 106.383,292.934 105.265,292.162 102.600 C 291.733 101.119,291.733 92.986,292.162 91.317 C 293.500 86.113,300.350 85.990,301.422 91.151 C 301.912 93.512,305.957 93.717,305.957 91.381 C 305.957 86.255,300.074 82.083,294.681 83.384 M316.261 83.830 C 311.979 85.489,310.168 89.199,309.984 96.690 C 309.816 103.509,311.063 106.886,314.579 109.137 C 319.622 112.365,330.655 109.000,327.719 105.129 C 326.852 103.988,326.264 104.021,324.252 105.324 C 319.747 108.242,314.657 105.524,314.657 100.199 C 314.657 98.331,314.597 98.346,321.942 98.342 C 325.282 98.340,328.131 98.260,328.274 98.164 C 329.646 97.249,329.118 90.730,327.411 87.505 C 325.449 83.798,320.529 82.176,316.261 83.830 M340.124 84.079 L 338.522 84.923 337.905 84.305 C 337.090 83.490,335.130 83.419,334.317 84.176 L 333.794 84.663 333.859 97.048 C 333.933 111.100,333.758 110.047,336.027 110.047 C 338.455 110.047,338.298 110.677,338.298 100.960 C 338.298 90.482,338.361 90.148,340.607 88.659 C 341.502 88.067,341.927 87.943,343.074 87.943 C 344.705 87.943,344.781 87.840,344.792 85.618 C 344.804 83.019,343.164 82.478,340.124 84.079 M252.839 84.124 C 254.883 84.745,256.523 86.398,257.117 88.434 C 257.469 89.641,258.048 109.329,257.742 109.693 C 257.254 110.273,254.748 109.741,254.086 108.916 C 253.287 107.919,252.798 107.827,251.997 108.521 C 248.639 111.433,242.919 110.267,241.119 106.303 C 240.454 104.838,240.475 100.858,241.155 99.364 C 242.627 96.133,246.106 94.326,250.854 94.326 C 253.260 94.326,253.768 93.784,253.613 91.378 C 253.282 86.213,246.923 85.228,244.933 90.034 C 244.411 91.294,241.354 91.371,241.177 90.129 C 241.051 89.239,242.229 87.040,243.475 85.838 C 245.556 83.832,249.505 83.109,252.839 84.124 M277.609 84.247 C 281.012 85.752,281.404 87.236,281.511 99.023 C 281.604 109.397,281.586 109.546,280.221 109.803 C 277.701 110.275,277.808 110.694,277.706 100.000 C 277.614 90.465,277.477 89.444,276.111 88.169 C 274.369 86.541,271.211 87.037,269.461 89.212 L 268.676 90.189 268.558 99.693 C 268.472 106.576,268.362 109.274,268.159 109.477 C 267.729 109.907,265.046 109.892,264.777 109.458 C 264.040 108.269,264.135 85.040,264.880 84.496 C 265.786 83.833,267.342 84.065,268.188 84.988 C 269.097 85.980,269.122 85.982,270.160 85.191 C 272.222 83.618,275.304 83.227,277.609 84.247 M300.256 84.180 C 304.055 85.412,307.500 92.038,304.589 92.511 C 302.795 92.802,301.655 92.124,301.655 90.768 C 301.655 87.115,295.462 85.705,293.008 88.799 C 290.550 91.898,290.681 102.603,293.209 105.273 C 295.810 108.019,301.655 106.668,301.655 103.321 C 301.655 102.066,304.329 101.289,305.302 102.263 C 305.760 102.721,305.760 102.726,305.290 104.154 C 303.083 110.858,293.320 112.380,289.506 106.616 C 286.640 102.286,286.672 91.354,289.562 87.172 C 291.678 84.111,296.169 82.854,300.256 84.180 M323.071 84.168 C 326.773 85.442,328.978 90.188,328.560 95.980 C 328.398 98.219,328.769 98.109,321.402 98.109 C 313.728 98.109,314.012 98.008,314.281 100.639 C 314.743 105.143,317.407 107.268,321.810 106.644 C 322.965 106.481,323.682 106.208,324.621 105.576 C 327.222 103.825,329.383 106.093,326.884 107.952 C 322.917 110.903,317.161 110.938,313.655 108.031 C 310.090 105.076,308.887 93.112,311.705 88.648 C 312.028 88.136,312.293 87.631,312.293 87.527 C 312.293 87.203,314.501 85.077,315.228 84.701 C 317.371 83.592,320.733 83.364,323.071 84.168 M344.238 84.191 C 344.669 84.622,344.722 84.878,344.607 85.989 C 344.443 87.579,344.620 87.432,342.563 87.690 C 338.410 88.211,338.084 89.079,338.070 99.645 C 338.056 109.909,338.055 109.916,335.773 109.926 C 334.022 109.933,333.994 109.695,334.087 95.840 C 334.171 83.464,334.053 84.161,336.064 84.161 C 337.120 84.161,337.391 84.254,337.783 84.752 C 338.380 85.511,338.477 85.502,340.244 84.518 C 342.035 83.521,343.452 83.405,344.238 84.191 M317.612 87.389 C 315.501 88.499,314.268 90.861,314.396 93.552 C 314.443 94.546,315.459 94.799,319.397 94.799 C 323.940 94.799,324.586 94.573,324.586 92.984 C 324.586 88.729,320.817 85.705,317.612 87.389 M321.503 87.795 C 322.620 88.159,323.570 89.584,323.967 91.489 C 324.509 94.092,324.131 94.326,319.385 94.326 C 314.564 94.326,314.175 94.030,315.136 91.087 C 316.193 87.849,318.312 86.753,321.503 87.795 M248.936 97.329 C 245.961 98.405,244.724 99.756,244.504 102.166 C 244.077 106.859,249.358 108.242,252.955 104.380 C 253.749 103.528,254.005 98.405,253.293 97.618 C 252.885 97.167,249.926 96.971,248.936 97.329 M252.734 97.644 C 253.541 98.076,253.412 103.248,252.569 104.250 C 249.143 108.321,243.796 105.965,245.144 100.978 C 245.774 98.647,250.625 96.516,252.734 97.644 M270.654 126.408 C 268.905 126.677,267.485 128.698,267.092 131.476 C 266.824 133.373,266.804 133.413,265.787 134.130 C 264.445 135.076,264.475 135.757,265.898 136.710 L 266.903 137.383 266.903 144.289 C 266.903 152.127,266.927 152.246,268.524 152.246 C 270.003 152.246,269.976 152.386,269.976 144.529 C 269.976 136.669,269.981 136.643,271.513 136.643 C 273.362 136.643,273.553 134.840,271.766 134.247 C 269.077 133.355,269.552 129.378,272.402 128.923 C 273.542 128.740,274.113 128.000,273.783 127.133 C 273.476 126.323,272.568 126.113,270.654 126.408 M203.034 126.637 C 202.295 126.832,202.246 127.554,202.185 139.243 C 202.117 152.208,202.102 152.067,203.533 152.205 C 205.247 152.369,205.437 152.041,205.437 148.928 C 205.437 146.489,205.495 146.090,205.927 145.540 C 206.861 144.353,207.174 144.620,209.492 148.582 C 211.680 152.320,211.638 152.279,213.183 152.198 C 214.919 152.108,215.004 151.759,213.765 149.810 C 213.253 149.004,212.633 148.005,212.386 147.590 C 212.140 147.174,211.327 145.830,210.579 144.604 C 208.846 141.760,208.852 141.616,210.816 139.151 C 211.693 138.049,212.594 136.848,212.818 136.482 C 213.042 136.115,213.355 135.638,213.514 135.422 C 214.397 134.216,211.274 133.815,210.358 135.017 C 210.122 135.326,209.849 135.686,209.752 135.817 C 207.299 139.110,206.262 140.426,206.116 140.426 C 205.649 140.426,205.547 139.387,205.437 133.491 C 205.301 126.171,205.258 126.048,203.034 126.637 M160.829 128.230 L 160.165 128.800 160.106 139.873 C 160.039 152.412,159.997 152.080,161.666 152.201 C 163.406 152.327,163.356 152.547,163.368 144.829 C 163.378 138.244,163.641 135.541,164.142 136.879 C 164.215 137.074,165.303 140.319,166.560 144.090 C 169.405 152.625,169.212 152.236,170.609 152.242 C 171.692 152.247,172.098 151.590,173.256 147.957 C 173.810 146.220,174.411 144.427,174.593 143.972 C 174.775 143.517,175.044 142.665,175.192 142.080 C 175.339 141.495,175.550 140.906,175.661 140.770 C 175.772 140.635,175.980 139.999,176.124 139.357 C 176.421 138.031,177.216 137.068,177.563 137.615 C 177.677 137.796,177.772 141.051,177.774 144.850 C 177.778 152.529,177.716 152.246,179.398 152.246 C 180.960 152.246,180.851 153.152,180.851 140.152 L 180.851 128.345 180.031 128.002 C 178.297 127.278,176.805 127.923,176.340 129.599 C 176.185 130.157,175.538 132.210,174.903 134.161 C 174.269 136.111,173.468 138.611,173.126 139.716 C 172.783 140.822,172.314 142.258,172.084 142.908 C 171.855 143.558,171.544 144.487,171.395 144.973 C 170.794 146.929,170.058 146.223,168.917 142.597 C 166.792 135.848,164.562 129.091,164.295 128.590 C 164.072 128.174,162.752 127.664,161.893 127.661 C 161.672 127.660,161.194 127.916,160.829 128.230 M242.863 127.915 C 242.580 128.020,242.234 128.317,242.096 128.576 C 241.718 129.283,241.748 151.583,242.128 151.962 C 242.531 152.366,253.923 152.366,254.326 151.962 C 254.708 151.580,254.684 150.783,254.275 150.222 C 253.969 149.804,253.578 149.757,249.842 149.690 C 246.390 149.628,245.698 149.556,245.449 149.231 C 245.224 148.937,245.154 146.533,245.154 139.096 C 245.154 127.849,245.005 127.123,242.863 127.915 M258.730 128.085 C 257.345 129.244,258.880 131.767,260.301 130.666 C 260.948 130.165,261.198 129.500,260.968 128.895 C 260.496 127.653,259.624 127.337,258.730 128.085 M301.660 127.963 C 300.493 128.554,300.480 128.684,300.476 140.314 C 300.473 149.783,300.521 151.263,300.841 151.720 C 301.205 152.240,301.276 152.246,307.218 152.246 L 313.228 152.246 313.615 151.655 C 314.622 150.119,313.350 149.647,308.186 149.642 C 303.587 149.637,303.917 149.932,303.824 145.739 C 303.717 140.933,303.542 141.135,307.815 141.135 C 312.073 141.135,313.128 140.541,311.925 138.823 C 311.573 138.321,311.406 138.298,308.061 138.298 C 303.581 138.298,303.783 138.480,303.783 134.438 C 303.783 130.313,303.553 130.496,308.710 130.496 C 313.098 130.496,313.475 130.377,313.475 128.988 C 313.475 127.856,312.518 127.659,307.041 127.663 C 303.670 127.666,302.072 127.755,301.660 127.963 M350.226 128.240 C 349.485 128.980,349.490 129.653,350.240 130.404 C 350.937 131.100,351.602 131.013,352.415 130.120 C 353.657 128.754,351.535 126.931,350.226 128.240 M189.772 134.230 C 187.213 135.148,185.324 137.803,186.484 138.852 C 187.301 139.591,188.492 139.252,189.102 138.108 C 190.261 135.933,193.911 136.240,194.520 138.564 C 195.050 140.586,194.547 141.114,191.802 141.415 C 187.758 141.859,185.586 143.902,185.581 147.266 C 185.575 151.419,189.305 153.811,192.999 152.022 C 194.193 151.444,194.641 151.415,195.035 151.891 C 195.220 152.114,195.736 152.245,196.424 152.242 C 198.167 152.236,198.231 152.133,197.911 149.844 C 197.759 148.760,197.635 145.765,197.636 143.190 C 197.636 140.450,197.523 138.060,197.365 137.430 C 196.650 134.593,193.022 133.064,189.772 134.230 M221.356 134.233 C 219.816 134.860,218.708 135.888,217.891 137.451 L 217.139 138.889 217.139 143.381 L 217.139 147.872 217.823 149.173 C 219.661 152.669,224.899 153.852,228.141 151.503 C 230.356 149.898,229.225 147.901,226.880 149.276 C 223.711 151.133,220.095 149.187,220.095 145.624 C 220.095 144.318,220.279 144.263,224.941 144.155 C 230.459 144.028,230.110 144.228,229.965 141.275 C 229.683 135.540,225.850 132.405,221.356 134.233 M280.043 134.282 C 278.483 134.892,277.403 135.974,276.510 137.825 L 275.768 139.362 275.768 143.499 L 275.768 147.636 276.596 149.166 C 278.597 152.867,284.551 153.967,287.363 151.156 C 289.118 149.401,287.592 147.806,285.579 149.291 C 283.508 150.819,279.793 149.733,279.169 147.418 C 278.360 144.411,278.620 144.213,283.421 144.184 C 288.933 144.151,288.538 144.380,288.518 141.240 C 288.483 135.506,284.752 132.443,280.043 134.282 M321.513 134.099 C 321.188 134.242,320.584 134.509,320.171 134.692 C 319.118 135.160,317.730 137.003,317.730 137.935 C 317.730 139.715,319.073 139.719,320.783 137.943 C 323.303 135.326,326.255 136.459,326.017 139.953 C 325.950 140.929,325.276 141.284,323.190 141.445 C 318.360 141.818,315.647 146.050,317.687 150.029 C 318.919 152.431,323.004 153.479,324.841 151.865 C 325.313 151.450,325.958 151.459,326.714 151.891 C 327.345 152.252,328.787 152.352,329.224 152.065 C 329.689 151.760,329.248 138.180,328.735 136.998 C 327.659 134.517,323.946 133.027,321.513 134.099 M337.526 134.230 C 332.407 136.066,332.779 142.180,338.123 144.026 C 339.048 144.346,341.052 145.524,341.785 146.179 C 342.594 146.903,342.543 148.724,341.694 149.392 C 340.142 150.612,337.545 149.912,336.472 147.984 C 335.709 146.614,333.570 146.734,333.570 148.147 C 333.570 152.872,342.768 154.320,344.901 149.931 C 346.566 146.504,345.324 144.262,340.539 142.054 C 336.917 140.383,336.017 138.821,337.751 137.214 C 338.939 136.112,341.364 136.685,342.178 138.259 C 343.173 140.181,345.491 139.459,344.955 137.393 C 344.257 134.701,340.578 133.135,337.526 134.230 M361.111 134.284 C 355.849 136.408,354.973 148.255,359.832 151.568 C 362.712 153.531,368.941 152.493,369.228 150.002 C 369.356 148.898,367.888 148.222,367.092 149.017 C 364.624 151.486,360.047 149.384,360.047 145.781 C 360.047 144.295,360.145 144.263,364.945 144.171 C 370.386 144.068,370.174 144.210,369.789 140.921 C 369.100 135.050,365.685 132.438,361.111 134.284 M378.072 134.341 C 377.199 134.779,376.963 134.809,376.282 134.562 C 373.538 133.570,373.522 133.621,373.522 143.450 C 373.522 152.757,373.422 152.246,375.255 152.246 C 376.368 152.246,376.359 152.296,376.361 145.903 C 376.362 138.468,376.755 137.398,379.631 137.003 C 380.775 136.846,380.821 136.809,380.964 135.963 C 381.314 133.893,380.203 133.270,378.072 134.341 M258.381 134.763 C 257.736 135.408,257.747 151.607,258.392 152.015 C 258.896 152.332,260.372 152.299,260.709 151.962 C 261.190 151.481,261.108 135.137,260.621 134.650 C 260.101 134.130,258.957 134.187,258.381 134.763 M350.017 134.650 C 349.693 134.974,349.645 136.098,349.645 143.389 C 349.645 152.658,349.574 152.246,351.182 152.246 C 352.792 152.246,352.719 152.673,352.719 143.262 C 352.719 135.107,352.700 134.759,352.261 134.524 C 351.585 134.162,350.441 134.227,350.017 134.650 M225.251 137.122 C 226.610 137.951,227.289 140.811,226.257 141.363 C 224.841 142.121,220.078 141.502,220.114 140.565 C 220.230 137.519,222.932 135.708,225.251 137.122 M284.089 137.106 C 284.658 137.452,284.936 137.873,285.212 138.803 C 285.955 141.304,285.621 141.608,282.125 141.608 C 279.138 141.608,278.858 141.448,279.065 139.871 C 279.420 137.163,281.923 135.785,284.089 137.106 M365.149 137.089 C 366.395 137.849,367.224 140.434,366.466 141.194 C 366.070 141.591,361.219 141.745,360.543 141.383 C 359.501 140.826,360.299 138.005,361.747 137.122 C 362.731 136.522,364.196 136.508,365.149 137.089 M194.179 144.039 C 195.203 144.788,194.931 147.672,193.726 148.843 C 190.762 151.721,186.897 148.109,189.547 144.939 C 190.447 143.863,193.205 143.327,194.179 144.039 M325.798 144.127 C 326.718 145.237,326.047 148.433,324.710 149.309 C 321.496 151.415,318.616 147.810,321.127 144.825 C 321.987 143.803,325.140 143.332,325.798 144.127 " stroke="none" fill="#b82129" fill-rule="evenodd"></path></g></svg>